{"title":"59th Filmfare Awards 2014 - Main Event - 26th Jan 2014 HQ 480p -","uid":9529490,"size":2422137217,"categoryP":"video","categoryS":"tv_shows","magnet":"?xt=urn:btih:ec02eed28b6c4e8c9466e4384076356e4941780d&amp;dn=59th+Filmfare+Awards+2014+-+Main+Event+-+26th+Jan+2014+HQ+480p+-&amp;tr=udp%3A%2F%2Ftracker.openbittorrent.com%3A80&amp;tr=udp%3A%2F%2Fopen.demonii.com%3A1337&amp;tr=udp%3A%2F%2Ftracker.coppersurfer.tk%3A6969&amp;tr=udp%3A%2F%2Fexodus.desync.com%3A6969","seeders":2,"leechers":1,"uploader":"ashish.p","files":1,"time":1390815155,"description":"General \n\nComplete name : 59th Filmfare Awards 2014 - Main Event - 26th Jan 2014 HQ 480p.mp4 \nFormat : MPEG-4 \nFormat profile : Base Media \nCodec ID : isom \nFile size : 2.26 GiB \nDuration : 2h 36mn \nOverall bit rate mode : Variable \nOverall bit rate : 2 068 Kbps \nWriting application : AVM.EXE \n\nVideo \n\nID : 1 \nFormat : MPEG-4 Visual \nFormat profile : Simple@L1 \nFormat settings, BVOP : No \nFormat settings, QPel : No \nFormat settings, GMC : No warppoints \nFormat settings, Matrix : Default (H.263) \nCodec ID : 20 \nDuration : 2h 36mn \nBit rate : 1 912 Kbps \nWidth : 848 pixels \nHeight : 480 pixels \nDisplay aspect ratio : 16:9 \nFrame rate mode : Constant \nFrame rate : 25.000 fps \nColor space : YUV \nChroma subsampling : 4:2:0 \nBit depth : 8 bits \nScan type : Progressive \nCompression mode : Lossy \nBits/(Pixel*Frame) : 0.188 \nStream size : 2.09 GiB (92%) \nWriting library : Lavc52.72.2 \n\nAudio \n\nID : 2 \nFormat : AAC \nFormat/Info : Advanced Audio Codec \nFormat profile : LC \nCodec ID : 40 \nDuration : 2h 36mn \nBit rate mode : Variable \nBit rate : 152 Kbps \nChannel(s) : 2 channels \nChannel positions : Front: L R \nSampling rate : 44.1 KHz \nCompression mode : Lossy \nStream size : 170 MiB (7%) \n","torrent":{"xt":"urn:btih:ec02eed28b6c4e8c9466e4384076356e4941780d","amp;dn":"59th+Filmfare+Awards+2014+-+Main+Event+-+26th+Jan+2014+HQ+480p+-","amp;tr":["udp%3A%2F%2Ftracker.openbittorrent.com%3A80","udp%3A%2F%2Fopen.demonii.com%3A1337","udp%3A%2F%2Ftracker.coppersurfer.tk%3A6969","udp%3A%2F%2Fexodus.desync.com%3A6969"],"infoHash":"ec02eed28b6c4e8c9466e4384076356e4941780d","infoHashBuffer":{"type":"Buffer","data":[236,2,238,210,139,108,78,140,148,102,228,56,64,118,53,110,73,65,120,13]},"announce":[],"urlList":[]}}